<svg xmlns="http://www.w3.org/2000/svg" width="120" height="120" viewBox="0 0 120 120">
  <g id="Admission_Processing" data-name="Admission Processing" transform="translate(-1415 -3518)">
    <g id="Ellipse_60" data-name="Ellipse 60" transform="translate(1415 3518)" fill="#fff" stroke="#0e3852" stroke-width="1">
      <circle cx="60" cy="60" r="60" stroke="none"/>
      <circle cx="60" cy="60" r="59.5" fill="none"/>
    </g>
    <g id="Group_1126" data-name="Group 1126" transform="translate(-3406 195)">
      <rect id="Rectangle_6075" data-name="Rectangle 6075" width="80" height="80" transform="translate(4841 3343)" fill="none"/>
      <g id="Outline_25_" transform="translate(4796.932 3347.053)">
        <g id="Group_1125" data-name="Group 1125" transform="translate(56)">
          <path id="Path_5015" data-name="Path 5015" d="M111.081,32.641a1.055,1.055,0,0,0,1.055-1.055V1.055A1.055,1.055,0,0,0,111.081,0H57.055A1.055,1.055,0,0,0,56,1.055V70.839a1.055,1.055,0,0,0,1.055,1.055h45.022a1.068,1.068,0,0,0,.746-.309l9-9a1.067,1.067,0,0,0,.309-.746V36.5a1.055,1.055,0,1,0-2.11,0V60.78h-7.949a1.055,1.055,0,0,0-1.055,1.055v7.949H58.11V2.11h51.916V31.586A1.055,1.055,0,0,0,111.081,32.641ZM103.132,62.89h5.4l-5.4,5.4Z" transform="translate(-56)" fill="#0084d6"/>
          <path id="Path_5016" data-name="Path 5016" d="M110.37,63.566V41.055A1.055,1.055,0,0,0,109.315,40H89.055A1.055,1.055,0,0,0,88,41.055V63.566a1.055,1.055,0,0,0,1.055,1.055h20.26A1.055,1.055,0,0,0,110.37,63.566ZM94.613,62.511v-5.7a1.2,1.2,0,0,1,1.2-1.2h6.753a1.2,1.2,0,0,1,1.2,1.2v5.7Zm13.647,0h-2.392v-5.7a3.31,3.31,0,0,0-3.306-3.306H95.808A3.31,3.31,0,0,0,92.5,56.813v5.7H90.11V42.11H108.26Z" transform="translate(-83.498 -34.372)" fill="#0084d6"/>
          <path id="Path_5017" data-name="Path 5017" d="M140.432,80.864A4.432,4.432,0,1,0,136,76.432,4.437,4.437,0,0,0,140.432,80.864Zm0-6.753a2.321,2.321,0,1,1-2.321,2.321A2.324,2.324,0,0,1,140.432,74.11Z" transform="translate(-124.745 -61.87)" fill="#0084d6"/>
          <path id="Path_5018" data-name="Path 5018" d="M281.055,74.11h6.753a1.055,1.055,0,0,0,0-2.11h-6.753a1.055,1.055,0,0,0,0,2.11Z" transform="translate(-248.485 -61.87)" fill="#0084d6"/>
          <path id="Path_5019" data-name="Path 5019" d="M367.809,72h-6.753a1.055,1.055,0,1,0,0,2.11h6.753a1.055,1.055,0,0,0,0-2.11Z" transform="translate(-317.229 -61.87)" fill="#0084d6"/>
          <path id="Path_5020" data-name="Path 5020" d="M281.055,106.11h14.632a1.055,1.055,0,1,0,0-2.11H281.055a1.055,1.055,0,0,0,0,2.11Z" transform="translate(-248.485 -89.368)" fill="#0084d6"/>
          <path id="Path_5021" data-name="Path 5021" d="M281.055,138.11h6.753a1.055,1.055,0,0,0,0-2.11h-6.753a1.055,1.055,0,0,0,0,2.11Z" transform="translate(-248.485 -116.866)" fill="#0084d6"/>
          <path id="Path_5022" data-name="Path 5022" d="M281.055,170.11h15.758a1.055,1.055,0,0,0,0-2.11H281.055a1.055,1.055,0,0,0,0,2.11Z" transform="translate(-248.485 -144.363)" fill="#0084d6"/>
          <path id="Path_5023" data-name="Path 5023" d="M135.021,265.588a1.055,1.055,0,0,0-.944-.583h-9.052a14.57,14.57,0,0,0-19.5-7.694,1.055,1.055,0,1,0,.877,1.92,12.464,12.464,0,1,1-4.113,3.031,1.055,1.055,0,0,0-1.572-1.408,14.541,14.541,0,0,0-2.6,4.151H89.055a1.055,1.055,0,0,0-.844,1.688l2.9,3.869-2.9,3.869a1.055,1.055,0,0,0,.844,1.688h9.052a14.561,14.561,0,0,0,26.917,0h9.052a1.055,1.055,0,0,0,.844-1.688l-2.9-3.869,2.9-3.869A1.055,1.055,0,0,0,135.021,265.588Zm-43.855,8.421,2.11-2.814a1.055,1.055,0,0,0,0-1.266l-2.11-2.814H97.42a14.55,14.55,0,0,0,0,6.894Zm38.691-2.814,2.11,2.814h-6.252a14.584,14.584,0,0,0,0-6.894h6.252l-2.11,2.814A1.055,1.055,0,0,0,129.856,271.195Z" transform="translate(-83.498 -219.982)" fill="#0084d6"/>
          <path id="Path_5024" data-name="Path 5024" d="M194.06,308.119A10.06,10.06,0,1,0,184,298.06,10.071,10.071,0,0,0,194.06,308.119Zm0-18.009a7.949,7.949,0,1,1-7.949,7.949A7.958,7.958,0,0,1,194.06,290.11Z" transform="translate(-165.991 -247.48)" fill="#0084d6"/>
          <path id="Path_5025" data-name="Path 5025" d="M224.683,331.048a1.055,1.055,0,0,0,1.359-.617l.588-1.566h3.6l.587,1.566a1.055,1.055,0,1,0,1.976-.741l-3.377-9a1.055,1.055,0,0,0-1.976,0l-3.377,9A1.055,1.055,0,0,0,224.683,331.048Zm3.747-6.987,1.01,2.693h-2.02Z" transform="translate(-200.362 -274.978)" fill="#0084d6"/>
        </g>
      </g>
    </g>
  </g>
</svg>
