<svg xmlns="http://www.w3.org/2000/svg" width="120" height="120" viewBox="0 0 120 120">
  <g id="Flight_Ticket_Booking" data-name="Flight Ticket Booking" transform="translate(-734 -3518)">
    <g id="Ellipse_60" data-name="Ellipse 60" transform="translate(734 3518)" fill="#fff" stroke="#0e3852" stroke-width="1">
      <circle cx="60" cy="60" r="60" stroke="none"/>
      <circle cx="60" cy="60" r="59.5" fill="none"/>
    </g>
    <g id="Group_1113" data-name="Group 1113" transform="translate(-4189 -136)">
      <rect id="Rectangle_6078" data-name="Rectangle 6078" width="80" height="80" transform="translate(4943 3674)" fill="none"/>
      <g id="airplane" transform="translate(4949.001 3679.5)">
        <path id="Path_4986" data-name="Path 4986" d="M135.21,43.206l1.963-1.963a3.17,3.17,0,0,0-4-4.879l-.414-1.388,2.125-2.125a3.168,3.168,0,0,0-4.173-4.75l-2.518-8.453c1.006-.968,1.969-1.911,2.877-2.818a33.5,33.5,0,0,0,5.989-7.8c2.106-4.077,1.224-6.256.114-7.367s-3.289-1.991-7.367.115a33.466,33.466,0,0,0-7.8,5.989c-.908.908-1.851,1.87-2.818,2.876l-8.454-2.518a3.168,3.168,0,0,0-4.75-4.173l-2.125,2.125-1.389-.414a3.17,3.17,0,0,0-4.878-4L95.632,3.627l-10-2.98a1.011,1.011,0,0,0-1,.254L82.05,3.477a1.021,1.021,0,0,0,.118,1.531l25.24,18.474C101.716,29.9,96.234,36.323,92.364,40.913L84.94,38.058a1.012,1.012,0,0,0-1.078.229L80.81,41.338a1.012,1.012,0,0,0,0,1.43L96.069,58.028a1.021,1.021,0,0,0,1.431,0l3.051-3.051a1.011,1.011,0,0,0,.229-1.079l-2.855-7.424c4.59-3.87,11.014-9.352,17.431-15.044l2,2.74a1.012,1.012,0,0,0,1.633-1.195l-2.12-2.9c3.356-2.995,6.669-6.016,9.676-8.864l9.53,31.993-1.314,1.314-13.1-17.895a1.012,1.012,0,1,0-1.632,1.2l13.8,18.847a1.021,1.021,0,0,0,1.531.118l2.575-2.575a1.012,1.012,0,0,0,.254-1ZM107.418,5.384a1.146,1.146,0,1,1,1.621,1.621l-.474.474-2.5-.744ZM99.025,3.1a1.146,1.146,0,1,1,1.621,1.621l-.312.311-2.5-.744Zm-14.711.977,1.314-1.314,31.993,9.53c-2.847,3.007-5.869,6.321-8.864,9.676Zm.513,36.109,6.159,2.369c-1.545,1.84-2.729,3.263-3.428,4.105l-4.6-4.6Zm4.168,7.911C92.521,43.839,111.16,21.479,123.44,9.2a31.887,31.887,0,0,1,7.295-5.622c1.651-.853,3.86-1.629,5.008-.482s.371,3.357-.482,5.008a31.9,31.9,0,0,1-5.622,7.295C117.36,27.677,95,46.316,90.745,49.843Zm9.661,5.918-1.871,1.871-4.6-4.6c.842-.7,2.266-1.883,4.105-3.428Zm35.465-15.819a1.146,1.146,0,1,1,1.621,1.621L134.554,41l-.744-2.5ZM131.833,29.8a1.146,1.146,0,0,1,1.621,1.621L132.1,32.772l-.744-2.5Zm0,0" transform="translate(-69.724 0)" fill="#0084d6"/>
        <path id="Path_4987" data-name="Path 4987" d="M395.412,433.29l-8.632,8.632a1.012,1.012,0,1,0,1.431,1.431l8.632-8.632a1.012,1.012,0,0,0-1.431-1.431Zm0,0" transform="translate(-334.693 -374.534)" fill="#0084d6"/>
        <path id="Path_4988" data-name="Path 4988" d="M385.555,402.515a1.011,1.011,0,0,0-1.43-1.43l-5.4,5.395a1.012,1.012,0,1,0,1.431,1.431Zm0,0" transform="translate(-327.722 -346.645)" fill="#0084d6"/>
        <path id="Path_4989" data-name="Path 4989" d="M371.858,362.257a1.012,1.012,0,0,0-1.431-1.431l-3.776,3.776a1.012,1.012,0,0,0,1.431,1.431Zm0,0" transform="translate(-317.262 -311.782)" fill="#0084d6"/>
        <path id="Path_4990" data-name="Path 4990" d="M10.358,50.853a1.012,1.012,0,0,0-1.431,0L.3,59.485a1.011,1.011,0,0,0,0,1.43,1.022,1.022,0,0,0,1.431,0l8.632-8.632a1.012,1.012,0,0,0,0-1.431Zm0,0" transform="translate(0 -43.349)" fill="#0084d6"/>
        <path id="Path_4991" data-name="Path 4991" d="M63.5,83.057a1.011,1.011,0,0,0-1.43,0l-5.4,5.4a1.011,1.011,0,1,0,1.43,1.43l5.4-5.395A1.011,1.011,0,0,0,63.5,83.057Zm0,0" transform="translate(-48.829 -71.237)" fill="#0084d6"/>
        <path id="Path_4992" data-name="Path 4992" d="M108.989,112.419a1.022,1.022,0,0,0,1.431,0l3.776-3.776a1.012,1.012,0,1,0-1.431-1.431l-3.776,3.776A1.012,1.012,0,0,0,108.989,112.419Zm0,0" transform="translate(-94.128 -92.155)" fill="#0084d6"/>
      </g>
    </g>
  </g>
</svg>
