<svg xmlns="http://www.w3.org/2000/svg" width="120" height="120" viewBox="0 0 120 120">
  <g id="Free_Counseling" data-name="Free Counseling" transform="translate(-394 -3518)">
    <g id="Ellipse_60" data-name="Ellipse 60" transform="translate(394 3518)" fill="#fff" stroke="#0e3852" stroke-width="1">
      <circle cx="60" cy="60" r="60" stroke="none"/>
      <circle cx="60" cy="60" r="59.5" fill="none"/>
    </g>
    <rect id="Rectangle_6007" data-name="Rectangle 6007" width="80" height="80" transform="translate(414 3538)" fill="none"/>
    <g id="Group_1112" data-name="Group 1112" transform="translate(-4227 184)">
      <rect id="Rectangle_6074" data-name="Rectangle 6074" width="80" height="80" transform="translate(4641 3354)" fill="none"/>
      <g id="consultation" transform="translate(4645 3359)">
        <path id="Path_4981" data-name="Path 4981" d="M199.966,18.361l8.378-6.981h10.968V0H192V11.38h7.966ZM194.276,9.1V2.276h22.76V9.1H207.52l-5.278,4.4V9.1Zm0,0" transform="translate(-164.688)" fill="#0084d6"/>
        <path id="Path_4982" data-name="Path 4982" d="M224,32h2.276v2.276H224Zm0,0" transform="translate(-192.136 -27.448)" fill="#0084d6"/>
        <path id="Path_4983" data-name="Path 4983" d="M256,32h9.1v2.276H256Zm0,0" transform="translate(-219.584 -27.448)" fill="#0084d6"/>
        <path id="Path_4984" data-name="Path 4984" d="M336,32h2.276v2.276H336Zm0,0" transform="translate(-288.204 -27.448)" fill="#0084d6"/>
        <path id="Path_4985" data-name="Path 4985" d="M57.93,171.21,57.01,162a7.971,7.971,0,0,0,6.719-7.858V139.346H59.176v-1.573a4.094,4.094,0,0,0-2.217-3.649,6.8,6.8,0,0,0,2.217-5.021v-2.276a6.828,6.828,0,1,0-13.656,0V129.1a6.833,6.833,0,0,0,4.5,6.41l-6.108,6.108H37.529a4.564,4.564,0,0,0-3.276-4.079l-4.665-1.331v-2.033a6.8,6.8,0,0,0,2.276-5.075v-2.276a6.828,6.828,0,1,0-13.656,0V129.1a6.808,6.808,0,0,0,2.276,5.075v2.034l-4.665,1.331a4.569,4.569,0,0,0-3.3,4.377v4.253H7.966V153h2.276V171.21H0v2.276H70.556V171.21ZM47.8,153v-5.219l8.064-8.064a3.565,3.565,0,0,0,1.007-2.183,1.852,1.852,0,0,1,.033.237v14.091a3.418,3.418,0,0,1-3.414,3.414h-9.1V153Zm-3.414,9.1h5.8l.91,9.1H44.382Zm8.086,0h2.265l.91,9.1H53.378Zm6.709-10.242V141.622h2.276V154.14a5.7,5.7,0,0,1-5.69,5.69H44.382v-2.276h9.1A5.7,5.7,0,0,0,59.176,151.864ZM47.8,129.1v-2.276a4.552,4.552,0,1,1,9.1,0V129.1a4.552,4.552,0,1,1-9.1,0ZM44.853,143.9l7.593-7.593a1.276,1.276,0,0,1,1.8,1.8l-8.064,8.064H34.14a1.138,1.138,0,1,1,0-2.276Zm-24.37-17.07a4.552,4.552,0,1,1,9.1,0V129.1a4.552,4.552,0,1,1-9.1,0Zm4.552,9.1a6.794,6.794,0,0,0,2.276-.4v1.222a2.91,2.91,0,0,1-2.276,1.452,2.91,2.91,0,0,1-2.276-1.452v-1.222A6.794,6.794,0,0,0,25.036,135.932Zm-10.242,5.99a2.286,2.286,0,0,1,1.65-2.189l4.688-1.339a4.956,4.956,0,0,0,3.9,2.09,4.954,4.954,0,0,0,3.9-2.092l4.688,1.339a2.268,2.268,0,0,1,1.6,1.889H34.14a3.418,3.418,0,0,0-3.414,3.414,3.367,3.367,0,0,0,.209,1.138H14.794Zm-4.552,6.529H45.52v2.276H10.242Zm2.276,9.1h3.414v-2.276H12.518V153H42.106v2.276h-23.9v2.276h23.9V171.21H39.4l-2.276-4.552H17.5l-2.276,4.552H12.518ZM36.851,171.21H17.773l1.138-2.276h16.8Zm0,0" transform="translate(0 -102.93)" fill="#0084d6"/>
      </g>
    </g>
  </g>
</svg>
