<svg xmlns="http://www.w3.org/2000/svg" width="120" height="120" viewBox="0 0 120 120">
  <g id="Language_Coaching" data-name="Language Coaching" transform="translate(-896 -3831)">
    <g id="Ellipse_60" data-name="Ellipse 60" transform="translate(896 3831)" fill="#fff" stroke="#0e3852" stroke-width="1">
      <circle cx="60" cy="60" r="60" stroke="none"/>
      <circle cx="60" cy="60" r="59.5" fill="none"/>
    </g>
    <g id="Group_1119" data-name="Group 1119" transform="translate(-3475 -2)">
      <rect id="Rectangle_6079" data-name="Rectangle 6079" width="80" height="80" transform="translate(4391 3853)" fill="none"/>
      <g id="flash-cards" transform="translate(4354.408 3856.863)">
        <path id="Path_5005" data-name="Path 5005" d="M220.518,148.933a1.422,1.422,0,0,0-1.32-.884h0a1.422,1.422,0,0,0-1.319.886l-.009.024-6.1,16.016a1.059,1.059,0,1,0,1.979.753l1.259-3.307h8.34l1.247,3.3a1.059,1.059,0,0,0,1.981-.748l-6.045-16.017Zm-4.705,11.372,3.383-8.881,3.352,8.881Z" transform="translate(-141.36 -127.15)" fill="#0084d6"/>
        <path id="Path_5006" data-name="Path 5006" d="M341.077,205.458a1.059,1.059,0,0,0,1.059-1.059v-9.96a1.059,1.059,0,0,0-2.117,0v.669a5.454,5.454,0,1,0,0,8.624v.669A1.059,1.059,0,0,0,341.077,205.458Zm-4.4-2.7a3.337,3.337,0,1,1,3.337-3.337A3.341,3.341,0,0,1,336.682,202.756Z" transform="translate(-244.016 -166.082)" fill="#0084d6"/>
        <path id="Path_5007" data-name="Path 5007" d="M253.256,340.98a1.059,1.059,0,1,0,0-2.117H232.786a1.059,1.059,0,1,0,0,2.117Z" transform="translate(-158.561 -291.029)" fill="#0084d6"/>
        <path id="Path_5008" data-name="Path 5008" d="M367.2,375.985H360.8a1.059,1.059,0,0,0,0,2.117H367.2a1.059,1.059,0,0,0,0-2.117Z" transform="translate(-268.502 -322.91)" fill="#0084d6"/>
        <path id="Path_5009" data-name="Path 5009" d="M223.421,377.044a1.059,1.059,0,0,0-1.059-1.059H204.417a1.059,1.059,0,0,0,0,2.117h17.946A1.059,1.059,0,0,0,223.421,377.044Z" transform="translate(-134.197 -322.91)" fill="#0084d6"/>
        <path id="Path_5010" data-name="Path 5010" d="M267.982,415.224h19.507a1.059,1.059,0,1,0,0-2.117H267.982a1.059,1.059,0,0,0,0,2.117Z" transform="translate(-188.789 -354.792)" fill="#0084d6"/>
        <path id="Path_5011" data-name="Path 5011" d="M204.417,413.107a1.059,1.059,0,1,0,0,2.117h4.707a1.059,1.059,0,1,0,0-2.117Z" transform="translate(-134.197 -354.792)" fill="#0084d6"/>
        <path id="Path_5012" data-name="Path 5012" d="M204.417,452.346H232.9a1.059,1.059,0,1,0,0-2.117h-28.48a1.059,1.059,0,1,0,0,2.117Z" transform="translate(-134.197 -386.674)" fill="#0084d6"/>
        <path id="Path_5013" data-name="Path 5013" d="M202.571,112.8H187.154a2.253,2.253,0,0,0-2.251,2.251v23.928a2.253,2.253,0,0,0,2.251,2.251H218a2.253,2.253,0,0,0,2.251-2.251V115.048A2.253,2.253,0,0,0,218,112.8H206.664a1.059,1.059,0,1,0,0,2.117H218a.133.133,0,0,1,.133.133v23.928a.133.133,0,0,1-.133.133H187.154a.134.134,0,0,1-.133-.133V115.048a.133.133,0,0,1,.133-.133h15.417a1.059,1.059,0,1,0,0-2.117Z" transform="translate(-118.347 -96.874)" fill="#0084d6"/>
        <path id="Path_5014" data-name="Path 5014" d="M102.941,11.686h-4.5v-2.7A3.143,3.143,0,0,0,95.3,5.843h-4.5v-2.7A3.143,3.143,0,0,0,87.666,0H50.243A3.143,3.143,0,0,0,47.1,3.139V13.761a1.059,1.059,0,0,0,2.117,0V3.139a1.023,1.023,0,0,1,1.021-1.022H87.666a1.023,1.023,0,0,1,1.022,1.022v2.7H57.881a3.143,3.143,0,0,0-3.139,3.139V58.471h-4.5a1.023,1.023,0,0,1-1.021-1.022V17.854a1.059,1.059,0,0,0-2.117,0V57.449a3.143,3.143,0,0,0,3.139,3.139h4.5v2.7a3.143,3.143,0,0,0,3.139,3.139h4.5v2.7a3.143,3.143,0,0,0,3.139,3.139h25.1a1.059,1.059,0,1,0,0-2.117h-25.1A1.023,1.023,0,0,1,64.5,69.135V14.825A1.023,1.023,0,0,1,65.518,13.8h37.423a1.023,1.023,0,0,1,1.022,1.022v54.31a1.023,1.023,0,0,1-1.022,1.022H94.712a1.059,1.059,0,0,0,0,2.117h8.228a3.143,3.143,0,0,0,3.139-3.139V14.825a3.142,3.142,0,0,0-3.139-3.139ZM62.379,14.825V64.314h-4.5a1.023,1.023,0,0,1-1.022-1.022V8.982a1.023,1.023,0,0,1,1.022-1.022H95.3a1.023,1.023,0,0,1,1.022,1.022v2.7H65.518a3.143,3.143,0,0,0-3.139,3.139Z" transform="translate(0)" fill="#0084d6"/>
      </g>
    </g>
  </g>
</svg>
