<svg xmlns="http://www.w3.org/2000/svg" width="120" height="120" viewBox="0 0 120 120">
  <g id="Pre-Departure_Orientation" data-name="Pre-Departure Orientation" transform="translate(-1237 -3831)">
    <g id="Ellipse_60" data-name="Ellipse 60" transform="translate(1237 3831)" fill="#fff" stroke="#0e3852" stroke-width="1">
      <circle cx="60" cy="60" r="60" stroke="none"/>
      <circle cx="60" cy="60" r="59.5" fill="none"/>
    </g>
    <g id="Group_1121" data-name="Group 1121" transform="translate(-3290 179)">
      <rect id="Rectangle_6080" data-name="Rectangle 6080" width="80" height="80" transform="translate(4547 3672)" fill="none"/>
      <g id="departure" transform="translate(4551.63 3649.765)">
        <g id="Group_1089" data-name="Group 1089" transform="translate(9.218 34.989)">
          <g id="Group_1088" data-name="Group 1088" transform="translate(0 0)">
            <path id="Path_4993" data-name="Path 4993" d="M68.676,58.8H67.26c-.328,0-.544.176-.544.376v5.1c0,.2.216.376.544.376h1.416a1.739,1.739,0,0,0,1.968-1.888V60.689A1.739,1.739,0,0,0,68.676,58.8Zm.72,3.96c0,.544-.272.8-.72.8h-.712V59.889h.712c.448,0,.72.256.72.8Z" transform="translate(-66.716 -58.801)" fill="#0084d6"/>
          </g>
        </g>
        <g id="Group_1091" data-name="Group 1091" transform="translate(14.673 34.989)">
          <g id="Group_1090" data-name="Group 1090" transform="translate(0 0)">
            <path id="Path_4994" data-name="Path 4994" d="M109.589,63.56h-2.144V62.2h1.2c.264,0,.376-.256.376-.472,0-.256-.136-.488-.376-.488h-1.2V59.889h2.144c.24,0,.376-.256.376-.552,0-.256-.112-.536-.376-.536h-2.848c-.272,0-.544.128-.544.384v5.079c0,.256.272.384.544.384h2.848c.264,0,.376-.28.376-.536C109.965,63.817,109.829,63.56,109.589,63.56Z" transform="translate(-106.197 -58.801)" fill="#0084d6"/>
          </g>
        </g>
        <g id="Group_1093" data-name="Group 1093" transform="translate(19.719 34.989)">
          <g id="Group_1092" data-name="Group 1092" transform="translate(0 0)">
            <path id="Path_4995" data-name="Path 4995" d="M144.844,58.8h-1.656a.417.417,0,0,0-.464.376v5.087c0,.256.312.384.624.384s.624-.128.624-.384V62.537h.792a1.73,1.73,0,0,0,1.968-1.856v-.04A1.679,1.679,0,0,0,144.844,58.8Zm.64,1.976c0,.544-.272.8-.72.8h-.792V59.889h.792c.448,0,.72.256.72.8Z" transform="translate(-142.724 -58.801)" fill="#0084d6"/>
          </g>
        </g>
        <g id="Group_1095" data-name="Group 1095" transform="translate(24.31 34.941)">
          <g id="Group_1094" data-name="Group 1094" transform="translate(0 0)">
            <path id="Path_4996" data-name="Path 4996" d="M180.583,63.749l-1.5-4.88c-.088-.28-.448-.416-.816-.416s-.728.136-.816.416l-1.488,4.88a.412.412,0,0,0-.016.088c0,.3.456.512.8.512.2,0,.36-.064.408-.232l.272-1h1.688l.272,1c.048.168.208.232.408.232.344,0,.8-.216.8-.512A.413.413,0,0,0,180.583,63.749Zm-2.9-1.592.584-2.144.584,2.144Z" transform="translate(-175.951 -58.453)" fill="#0084d6"/>
          </g>
        </g>
        <g id="Group_1097" data-name="Group 1097" transform="translate(30.157 34.989)">
          <g id="Group_1096" data-name="Group 1096" transform="translate(0 0)">
            <path id="Path_4997" data-name="Path 4997" d="M222.286,63.9l-.976-1.768a1.576,1.576,0,0,0,.968-1.624c0-1.3-.872-1.712-1.968-1.712h-1.656a.372.372,0,0,0-.384.376v5.087c0,.256.312.384.624.384s.624-.128.624-.384V62.337h.528l1.1,2.128a.426.426,0,0,0,.4.232.813.813,0,0,0,.784-.648A.263.263,0,0,0,222.286,63.9Zm-1.976-2.528h-.792V59.889h.792c.448,0,.72.184.72.744S220.758,61.377,220.31,61.377Z" transform="translate(-218.27 -58.801)" fill="#0084d6"/>
          </g>
        </g>
        <g id="Group_1099" data-name="Group 1099" transform="translate(35.132 34.989)">
          <g id="Group_1098" data-name="Group 1098" transform="translate(0 0)">
            <path id="Path_4998" data-name="Path 4998" d="M258.109,58.8h-3.456c-.264,0-.376.288-.376.552,0,.3.136.568.376.568h1.1v4.344c0,.256.312.384.624.384s.624-.128.624-.384V59.921h1.1c.24,0,.376-.264.376-.568C258.484,59.089,258.372,58.8,258.109,58.8Z" transform="translate(-254.277 -58.801)" fill="#0084d6"/>
          </g>
        </g>
        <g id="Group_1101" data-name="Group 1101" transform="translate(40.547 34.989)">
          <g id="Group_1100" data-name="Group 1100" transform="translate(0 0)">
            <path id="Path_4999" data-name="Path 4999" d="M296.876,58.8c-.32,0-.624.112-.624.376v3.632a.769.769,0,1,1-1.536,0V59.177c0-.264-.32-.376-.624-.376-.32,0-.624.112-.624.376v3.632a2.02,2.02,0,0,0,4.032,0V59.177C297.5,58.913,297.179,58.8,296.876,58.8Z" transform="translate(-293.468 -58.801)" fill="#0084d6"/>
          </g>
        </g>
        <g id="Group_1103" data-name="Group 1103" transform="translate(46.154 34.989)">
          <g id="Group_1102" data-name="Group 1102" transform="translate(0 0)">
            <path id="Path_5000" data-name="Path 5000" d="M338.065,63.9l-.976-1.768a1.576,1.576,0,0,0,.968-1.624c0-1.3-.872-1.712-1.968-1.712h-1.656a.372.372,0,0,0-.384.376v5.087c0,.256.312.384.624.384s.624-.128.624-.384V62.337h.528l1.1,2.128a.426.426,0,0,0,.4.232.813.813,0,0,0,.784-.648A.263.263,0,0,0,338.065,63.9Zm-1.976-2.528H335.3V59.889h.792c.448,0,.72.184.72.744S336.536,61.377,336.089,61.377Z" transform="translate(-334.049 -58.801)" fill="#0084d6"/>
          </g>
        </g>
        <g id="Group_1105" data-name="Group 1105" transform="translate(51.56 34.989)">
          <g id="Group_1104" data-name="Group 1104" transform="translate(0 0)">
            <path id="Path_5001" data-name="Path 5001" d="M376.573,63.56h-2.144V62.2h1.2c.264,0,.376-.256.376-.472,0-.256-.136-.488-.376-.488h-1.2V59.889h2.144c.24,0,.376-.256.376-.552,0-.256-.112-.536-.376-.536h-2.848c-.272,0-.544.128-.544.384v5.079c0,.256.272.384.544.384h2.848c.264,0,.376-.28.376-.536C376.949,63.817,376.813,63.56,376.573,63.56Z" transform="translate(-373.181 -58.801)" fill="#0084d6"/>
          </g>
        </g>
        <g id="Group_1107" data-name="Group 1107" transform="translate(56.327 34.941)">
          <g id="Group_1106" data-name="Group 1106" transform="translate(0 0)">
            <path id="Path_5002" data-name="Path 5002" d="M409.073,59.989c0-.248.232-.48.8-.48.656,0,.808.3,1.1.3.352,0,.5-.44.5-.656,0-.624-1.168-.7-1.592-.7-1,0-2.048.456-2.048,1.656,0,1.872,2.536,1.7,2.536,2.672,0,.384-.408.528-.776.528-.744,0-.984-.592-1.36-.592-.3,0-.544.4-.544.672,0,.528.88,1.04,1.928,1.04a1.767,1.767,0,0,0,2-1.776C411.609,60.637,409.073,60.789,409.073,59.989Z" transform="translate(-407.681 -58.453)" fill="#0084d6"/>
          </g>
        </g>
        <g id="Group_1109" data-name="Group 1109" transform="translate(0 31.172)">
          <g id="Group_1108" data-name="Group 1108" transform="translate(0 0)">
            <path id="Path_5003" data-name="Path 5003" d="M67.906,31.172H2.834A2.838,2.838,0,0,0,0,34.006V90.464A2.838,2.838,0,0,0,2.834,93.3H67.906a2.838,2.838,0,0,0,2.834-2.834V34.006A2.837,2.837,0,0,0,67.906,31.172Zm.73,59.292a.73.73,0,0,1-.73.729H2.834a.73.73,0,0,1-.73-.729V44.651H7.823a1.052,1.052,0,0,0,0-2.1H2.1v-8.54a.73.73,0,0,1,.73-.73H67.906a.73.73,0,0,1,.73.73v8.54H12.72a1.052,1.052,0,1,0,0,2.1H68.635Z" transform="translate(0 -31.172)" fill="#0084d6"/>
          </g>
        </g>
        <g id="Group_1111" data-name="Group 1111" transform="translate(7.523 50.509)">
          <g id="Group_1110" data-name="Group 1110" transform="translate(0 0)">
            <path id="Path_5004" data-name="Path 5004" d="M110.023,178.135a3.665,3.665,0,0,0-2.954-2.658l-1.252-.2a23.656,23.656,0,0,0-11.691,1.091l-6.168,2.213-5.281-2.6a1.052,1.052,0,0,0-.93,1.888l3.455,1.7-5.849,2.1-9.14-7.623,2.181-.783,4.822,2.374a1.052,1.052,0,0,0,.93-1.888L73.177,171.3a1.73,1.73,0,0,0-1.341-.076L68.87,172.29a1.721,1.721,0,0,0-.521,2.942l8.705,7.26-11.151,4a.494.494,0,0,1-.451-.062L59.619,182.3a1.667,1.667,0,0,0-1.42-.246l-2.526.708a1.673,1.673,0,0,0-.857,2.654l5.769,7.239a8.3,8.3,0,0,0,9.041,2.7l10-3.38-2.5,13.22a1.722,1.722,0,0,0,2.273,1.94L82.555,206a1.73,1.73,0,0,0,.987-.912l7.7-17.04,16.387-5.537A3.65,3.65,0,0,0,110.023,178.135Zm-3.071,2.385L90.131,186.2a1.053,1.053,0,0,0-.622.564l-7.818,17.309-2.366.849,2.706-14.33a1.052,1.052,0,0,0-1.371-1.192l-11.7,3.953a6.181,6.181,0,0,1-6.73-2.014l-5.364-6.731,1.7-.477,5.666,4.015a2.6,2.6,0,0,0,2.379.326l28.223-10.127a21.547,21.547,0,0,1,10.648-.993l1.252.2a1.522,1.522,0,0,1,.215,2.965Z" transform="translate(-54.452 -171.126)" fill="#0084d6"/>
          </g>
        </g>
      </g>
    </g>
  </g>
</svg>
