<svg xmlns="http://www.w3.org/2000/svg" width="120" height="120" viewBox="0 0 120 120">
  <g id="University_Alignment" data-name="University Alignment" transform="translate(-556 -3831)">
    <g id="Ellipse_60" data-name="Ellipse 60" transform="translate(556 3831)" fill="#fff" stroke="#0e3852" stroke-width="1">
      <circle cx="60" cy="60" r="60" stroke="none"/>
      <circle cx="60" cy="60" r="59.5" fill="none"/>
    </g>
    <g id="Group_1123" data-name="Group 1123" transform="translate(-3915 468)">
      <rect id="Rectangle_6076" data-name="Rectangle 6076" width="80" height="80" transform="translate(4491 3383)" fill="none"/>
      <g id="Page-1" transform="translate(4494.212 3386.212)">
        <g id="_031---University" data-name="031---University" transform="translate(0 0.001)">
          <path id="Shape" d="M71.995,65.012v-28.4a1.193,1.193,0,0,0-.14-.541h.012l-2.987-5.973a3.64,3.64,0,0,0-3.274-2.028H57.352v-1.22a1.22,1.22,0,0,0-.358-.863l-6.606-6.606a3.612,3.612,0,0,0-1.578-.914V10.232l2.44-.655V12.54a3.74,3.74,0,0,0,1.668,3.118,1.22,1.22,0,0,0,1.354-2.03,1.3,1.3,0,0,1-.582-1.087V8.814a2.44,2.44,0,0,0-.586-4.47L37.235.083a2.43,2.43,0,0,0-1.254,0L20.11,4.344a2.454,2.454,0,0,0,0,4.735l4.3,1.153V18.3h-.077a3.651,3.651,0,0,0-2.807,1.318l-5.369,6.443a1.22,1.22,0,0,0-.289.781v1.22H7.609a3.64,3.64,0,0,0-3.274,2.023L1.348,36.062h.012a1.193,1.193,0,0,0-.14.545v28.4A2.432,2.432,0,0,0,0,67.114v2.44a2.441,2.441,0,0,0,2.44,2.44h16.2a2.432,2.432,0,0,0,2.1,1.22H52.471a2.432,2.432,0,0,0,2.1-1.22h16.2a2.441,2.441,0,0,0,2.44-2.44v-2.44A2.432,2.432,0,0,0,71.995,65.012Zm-18.3-.339h-1.22V37.828H69.554V64.673Zm-13.423,0H32.947V51.25h7.321Zm1.22-15.863H31.726a1.22,1.22,0,0,0-1.22,1.22V64.673H23.185V37.828H50.03V64.673H42.709V50.03A1.22,1.22,0,0,0,41.488,48.81ZM54.911,28.066v2.44H18.3v-2.44Zm-2.441,4.881v2.44H20.744v-2.44Zm13.135-2.441a1.213,1.213,0,0,1,1.091.675l2.1,4.206H54.911v-2.44a2.441,2.441,0,0,0,2.44-2.441Zm-29-28.066,15.88,4.271h-.016L36.614,10.982,20.744,6.7Zm-9.762,8.447L35.98,13.34a2.412,2.412,0,0,0,1.254,0l9.135-2.453V18.3H26.845Zm-3.455,10.3a1.22,1.22,0,0,1,.937-.439H47.8a1.22,1.22,0,0,1,.864.358l4.523,4.523h-33.5Zm-16.872,10a1.213,1.213,0,0,1,1.091-.675h8.254A2.44,2.44,0,0,0,18.3,32.947v2.44H4.415ZM2.44,67.114H18.3v2.44H2.44Zm17.083-2.44H3.661V37.828H20.744V64.673Zm1.22,6.1V67.114H52.471v3.661Zm50.03-1.22H54.911v-2.44H70.774Z" transform="translate(0 -0.001)" fill="#0084d6"/>
          <path id="Shape-2" data-name="Shape" d="M27.22,33A1.22,1.22,0,0,0,26,34.22v2.44a1.22,1.22,0,1,0,2.441,0V34.22A1.22,1.22,0,0,0,27.22,33Z" transform="translate(5.726 7.268)" fill="#0084d6"/>
          <path id="Shape-3" data-name="Shape" d="M13.22,34A1.22,1.22,0,0,0,12,35.22v2.441a1.22,1.22,0,0,0,2.44,0V35.22A1.22,1.22,0,0,0,13.22,34Z" transform="translate(2.643 7.488)" fill="#0084d6"/>
          <path id="Shape-4" data-name="Shape" d="M7.22,34A1.22,1.22,0,0,0,6,35.22v2.441a1.22,1.22,0,0,0,2.44,0V35.22A1.22,1.22,0,0,0,7.22,34Z" transform="translate(1.321 7.488)" fill="#0084d6"/>
          <path id="Shape-5" data-name="Shape" d="M13.22,40A1.22,1.22,0,0,0,12,41.22v2.44a1.22,1.22,0,0,0,2.44,0V41.22A1.22,1.22,0,0,0,13.22,40Z" transform="translate(2.643 8.809)" fill="#0084d6"/>
          <path id="Shape-6" data-name="Shape" d="M7.22,40A1.22,1.22,0,0,0,6,41.22v2.44a1.22,1.22,0,1,0,2.44,0V41.22A1.22,1.22,0,0,0,7.22,40Z" transform="translate(1.321 8.809)" fill="#0084d6"/>
          <path id="Shape-7" data-name="Shape" d="M13.22,46A1.22,1.22,0,0,0,12,47.22v2.44a1.22,1.22,0,0,0,2.44,0V47.22A1.22,1.22,0,0,0,13.22,46Z" transform="translate(2.643 10.131)" fill="#0084d6"/>
          <path id="Shape-8" data-name="Shape" d="M7.22,46A1.22,1.22,0,0,0,6,47.22v2.44a1.22,1.22,0,1,0,2.44,0V47.22A1.22,1.22,0,0,0,7.22,46Z" transform="translate(1.321 10.131)" fill="#0084d6"/>
          <path id="Shape-9" data-name="Shape" d="M53.22,34A1.22,1.22,0,0,0,52,35.22v2.441a1.22,1.22,0,0,0,2.44,0V35.22A1.22,1.22,0,0,0,53.22,34Z" transform="translate(11.453 7.488)" fill="#0084d6"/>
          <path id="Shape-10" data-name="Shape" d="M47.22,34A1.22,1.22,0,0,0,46,35.22v2.441a1.22,1.22,0,0,0,2.441,0V35.22A1.22,1.22,0,0,0,47.22,34Z" transform="translate(10.131 7.488)" fill="#0084d6"/>
          <path id="Shape-11" data-name="Shape" d="M53.22,40A1.22,1.22,0,0,0,52,41.22v2.44a1.22,1.22,0,1,0,2.44,0V41.22A1.22,1.22,0,0,0,53.22,40Z" transform="translate(11.453 8.809)" fill="#0084d6"/>
          <path id="Shape-12" data-name="Shape" d="M47.22,40A1.22,1.22,0,0,0,46,41.22v2.44a1.22,1.22,0,0,0,2.441,0V41.22A1.22,1.22,0,0,0,47.22,40Z" transform="translate(10.131 8.809)" fill="#0084d6"/>
          <path id="Shape-13" data-name="Shape" d="M53.22,46A1.22,1.22,0,0,0,52,47.22v2.44a1.22,1.22,0,1,0,2.44,0V47.22A1.22,1.22,0,0,0,53.22,46Z" transform="translate(11.453 10.131)" fill="#0084d6"/>
          <path id="Shape-14" data-name="Shape" d="M47.22,46A1.22,1.22,0,0,0,46,47.22v2.44a1.22,1.22,0,0,0,2.441,0V47.22A1.22,1.22,0,0,0,47.22,46Z" transform="translate(10.131 10.131)" fill="#0084d6"/>
          <path id="Shape-15" data-name="Shape" d="M33.22,33A1.22,1.22,0,0,0,32,34.22v2.44a1.22,1.22,0,1,0,2.441,0V34.22A1.22,1.22,0,0,0,33.22,33Z" transform="translate(7.048 7.268)" fill="#0084d6"/>
        </g>
      </g>
    </g>
  </g>
</svg>
