<svg xmlns="http://www.w3.org/2000/svg" width="120" height="120" viewBox="0 0 120 120">
  <g id="Visa_Application" data-name="Visa Application" transform="translate(-1074 -3518)">
    <g id="Ellipse_60" data-name="Ellipse 60" transform="translate(1074 3518)" fill="#fff" stroke="#0e3852" stroke-width="1">
      <circle cx="60" cy="60" r="60" stroke="none"/>
      <circle cx="60" cy="60" r="59.5" fill="none"/>
    </g>
    <g id="Group_1117" data-name="Group 1117" transform="translate(-2614 -299)">
      <g id="Group_1116" data-name="Group 1116">
        <rect id="Rectangle_6077" data-name="Rectangle 6077" width="80" height="80" transform="translate(3708 3837)" fill="none"/>
        <g id="Page-1" transform="translate(3712.466 3841.466)">
          <g id="_002---Visa-Approved" data-name="002---Visa-Approved">
            <path id="Shape" d="M61.593,0H9.476A9.486,9.486,0,0,0,0,9.476V61.593a9.486,9.486,0,0,0,9.476,9.476H61.593a9.486,9.486,0,0,0,9.476-9.476V9.476A9.486,9.486,0,0,0,61.593,0Zm0,68.7H9.476a7.114,7.114,0,0,1-7.107-7.107V36.719H68.7V61.593A7.114,7.114,0,0,1,61.593,68.7ZM68.7,34.35H2.369V9.476A7.114,7.114,0,0,1,9.476,2.369H61.593A7.114,7.114,0,0,1,68.7,9.476Z" fill="#0084d6"/>
            <path id="Shape-2" data-name="Shape" d="M15.845,5.184A1.184,1.184,0,0,0,14.66,4H8.738A4.738,4.738,0,0,0,4,8.738V14.66a1.184,1.184,0,0,0,2.369,0V8.738A2.369,2.369,0,0,1,8.738,6.369H14.66A1.184,1.184,0,0,0,15.845,5.184Z" transform="translate(0.738 0.738)" fill="#0084d6"/>
            <path id="Shape-3" data-name="Shape" d="M53.107,4H47.184a1.184,1.184,0,0,0,0,2.369h5.922a2.369,2.369,0,0,1,2.369,2.369V14.66a1.184,1.184,0,1,0,2.369,0V8.738A4.738,4.738,0,0,0,53.107,4Z" transform="translate(8.486 0.738)" fill="#0084d6"/>
            <path id="Shape-4" data-name="Shape" d="M22.485,9.091a1.184,1.184,0,0,0-1.549.637l-4.829,11.59L11.278,9.728a1.185,1.185,0,0,0-2.187.912l5.922,14.214a1.184,1.184,0,0,0,2.187,0l5.922-14.214a1.184,1.184,0,0,0-.637-1.549Z" transform="translate(1.66 1.66)" fill="#0084d6"/>
            <path id="Shape-5" data-name="Shape" d="M48.2,9.728a1.184,1.184,0,0,0-2.187,0L40.091,23.942a1.185,1.185,0,1,0,2.187.912l1.67-4.009h6.318l1.67,4.009a1.185,1.185,0,1,0,2.187-.912Zm-3.264,8.747,2.171-5.212,2.171,5.212Z" transform="translate(7.379 1.66)" fill="#0084d6"/>
            <path id="Shape-6" data-name="Shape" d="M24.184,9A1.184,1.184,0,0,0,23,10.184V24.4a1.184,1.184,0,1,0,2.369,0V10.184A1.184,1.184,0,0,0,24.184,9Z" transform="translate(4.243 1.66)" fill="#0084d6"/>
            <path id="Shape-7" data-name="Shape" d="M34.515,11.369c2.442,0,4.146,1.248,4.146,2.369a1.184,1.184,0,0,0,2.369,0C41.029,11.081,38.168,9,34.515,9S28,11.081,28,13.738s2.862,4.738,6.515,4.738c2.442,0,4.146,1.248,4.146,2.369s-1.7,2.369-4.146,2.369-4.146-1.248-4.146-2.369a1.184,1.184,0,0,0-2.369,0c0,2.657,2.862,4.738,6.515,4.738s6.515-2.081,6.515-4.738-2.862-4.738-6.515-4.738c-2.444,0-4.146-1.248-4.146-2.369S32.071,11.369,34.515,11.369Z" transform="translate(5.165 1.66)" fill="#0084d6"/>
            <path id="Shape-8" data-name="Shape" d="M31.243,33H8.738A4.738,4.738,0,0,0,4,37.738V55.5a4.738,4.738,0,0,0,4.738,4.738h22.5A4.738,4.738,0,0,0,35.981,55.5V37.738A4.738,4.738,0,0,0,31.243,33ZM13.476,57.874V56.1a6.515,6.515,0,0,1,13.029,0v1.777Zm3.553-13.621a2.961,2.961,0,1,1,2.961,2.961A2.961,2.961,0,0,1,17.029,44.252ZM33.612,55.5a2.369,2.369,0,0,1-2.369,2.369H28.874V56.1a8.884,8.884,0,0,0-5.15-8.054,5.33,5.33,0,1,0-7.462,0A8.884,8.884,0,0,0,11.107,56.1v1.777H8.738A2.369,2.369,0,0,1,6.369,55.5V37.738a2.369,2.369,0,0,1,2.369-2.369h22.5a2.369,2.369,0,0,1,2.369,2.369Z" transform="translate(0.738 6.088)" fill="#0084d6"/>
            <path id="Shape-9" data-name="Shape" d="M46.437,34A12.437,12.437,0,1,0,58.874,46.437,12.437,12.437,0,0,0,46.437,34Zm0,22.5A10.068,10.068,0,1,1,56.5,46.437,10.068,10.068,0,0,1,46.437,56.5Z" transform="translate(6.272 6.272)" fill="#0084d6"/>
            <path id="Shape-10" data-name="Shape" d="M51.432,41.3l-8.647,7.56-2.769-2.769a1.184,1.184,0,0,0-1.675,1.675l3.553,3.553a1.184,1.184,0,0,0,1.618.053l9.476-8.291a1.184,1.184,0,1,0-1.561-1.777Z" transform="translate(7.011 7.557)" fill="#0084d6"/>
          </g>
        </g>
      </g>
    </g>
  </g>
</svg>
